<svg width="200" height="200" viewBox="0 0 200 200" fill="none" xmlns="http://www.w3.org/2000/svg">
<path d="M161.005 85.0084C163.673 83.8275 166.601 85.7957 166.601 88.6823V139.002C166.601 140.576 165.691 142.019 164.194 142.675L35.2207 199.883C34.3097 200.277 33.3335 199.621 33.3335 198.637V144.25C33.3335 142.675 34.2445 141.232 35.7411 140.576L160.94 85.0084H161.005Z" fill="#2FB490"/>
<path d="M164.779 0.115995C165.69 -0.277636 166.666 0.378422 166.666 1.3625V55.7493C166.666 57.3238 165.755 58.7671 164.259 59.4232L39.0597 114.991C36.3917 116.172 33.4634 114.204 33.4634 111.317V60.9977C33.4634 59.4232 34.3745 57.9799 35.8712 57.3238L164.844 0.115995H164.779Z" fill="#2FB490"/>
</svg>
